:SAMPLES-PER-SECOND 30
:FULLY-SPECIFIED
:DEGREES
321
root  -19.7985 40.2129 -3.38964 -1.48597 38.4712 2.96198
RightUpLeg  -4.32168 -9.00191 -16.2318
RightLeg  25.8092 -4.82792 -2.76483
RightFoot  -7.4043 -0.15296 2.96605
RightToes  0.00048216 0.542163 -0.142577
Spine  11.3571 -1.50084 -2.00338
Spine1  7.15145 -2.82567 3.52505
HEad  -5.55942 -4.87947 -2.46398
LeftShoulder1  8.56414 -12.7938 -45.8211
LeftArm  -6.46548 7.09879 -28.2075
LeftForeArm  39.685 -33.6993 -5.22251
LeftHand  -0.25398 0.0180481 5.50724
RightShoulder  5.04013 9.33684 33.3085
RightArm  10.614 -32.5598 36.2322
RightForeArm  -11.6403 28.4791 6.76191
RightHand  -2.60465 7.65165 -23.2977
LeftUpLeg  -1.4879 10.7398 -4.27948
LeftLeg  13.9706 30.8246 0.0776294
LeftFoot  -10.3694 0.00778391 6.43655
LeftToes  1.06246e-005 4.65856e-005 -8.18502e-006
322
root  -19.1057 40.2863 -3.20843 -1.67319 44.4482 2.4115
RightUpLeg  -7.38752 -9.99991 -12.6379
RightLeg  28.9152 -6.02925 -3.81471
RightFoot  -7.33496 -0.108573 1.70544
RightToes  0.00048216 0.542163 -0.142577
Spine  11.7956 -1.87356 -2.78043
Spine1  7.13494 -3.51705 4.39193
HEad  -5.06722 -1.02037 -2.36459
LeftShoulder1  8.52267 -12.8068 -45.5542
LeftArm  -5.8368 4.79844 -29.7076
LeftForeArm  40.3673 -36.8202 -5.97343
LeftHand  -0.25398 0.0180481 5.50724
RightShoulder  5.04008 9.38085 33.1745
RightArm  10.1124 -32.5714 37.4587
RightForeArm  -6.54789 30.5211 7.02058
RightHand  -2.30483 7.08484 -21.62
LeftUpLeg  0.299068 6.4302 -4.73822
LeftLeg  11.5324 29.255 -1.35092
LeftFoot  -10.5516 0.0199881 6.30904
LeftToes  1.06246e-005 4.65856e-005 -8.18502e-006
323
root  -18.3891 40.3288 -2.98137 -1.74395 49.9909 2.1301
RightUpLeg  -10.5166 -11.4408 -9.45246
RightLeg  29.9301 -5.99938 -3.95437
RightFoot  -6.49195 -0.0958902 1.20074
RightToes  0.00048216 0.542163 -0.142577
Spine  12.2312 -2.08562 -3.54428
Spine1  7.25478 -3.98711 5.02387
HEad  -4.88227 1.83503 -1.46786
LeftShoulder1  8.61061 -12.9375 -45.6618
LeftArm  -5.27716 2.82221 -30.7982
LeftForeArm  41.6913 -40.2934 -6.85174
LeftHand  -0.25398 0.0180481 5.50724
RightShoulder  5.03913 9.3876 33.1468
RightArm  9.46156 -32.3169 38.6889
RightForeArm  -4.70018 32.3957 7.41406
RightHand  -2.1111 6.4918 -20.8139
LeftUpLeg  2.10397 4.37532 -5.21677
LeftLeg  9.71715 26.0474 -2.19787
LeftFoot  -10.8446 0.038063 6.29578
LeftToes  1.06246e-005 4.65856e-005 -8.18502e-006
324
root  -17.6233 40.3173 -2.72009 -1.79 54.6467 2.10285
RightUpLeg  -13.3097 -12.3324 -6.63199
RightLeg  28.5702 -6.02203 -3.7656
RightFoot  -5.42636 -0.129916 1.79783
RightToes  0.00048216 0.542163 -0.142577
Spine  12.713 -2.0104 -3.90212
Spine1  7.50929 -3.97718 5.02775
HEad  -5.12222 3.52533 -0.248884
LeftShoulder1  8.81005 -13.1756 -46.0666
LeftArm  -4.97571 1.13553 -31.6067
LeftForeArm  43.2577 -43.5637 -7.74663
LeftHand  -0.25398 0.0180481 5.50724
RightShoulder  5.06766 9.41854 33.2734
RightArm  8.94622 -31.7778 39.618
RightForeArm  -4.85988 33.899 7.83287
RightHand  -2.01723 6.07923 -20.6011
LeftUpLeg  4.07646 3.65366 -5.56212
LeftLeg  8.50209 22.3837 -2.72928
LeftFoot  -11.3339 0.0678171 6.40648
LeftToes  1.06246e-005 4.65856e-005 -8.18502e-006
325
root  -16.7755 40.2188 -2.43595 -1.75975 58.4081 2.4448
RightUpLeg  -15.4719 -12.7216 -4.26252
RightLeg  25.0632 -5.99244 -3.28983
RightFoot  -4.11584 -0.154005 2.0163
RightToes  0.00048216 0.542163 -0.142577
Spine  13.31 -1.76927 -3.79661
Spine1  7.76729 -3.57061 4.31532
HEad  -5.77964 4.3425 0.891628
LeftShoulder1  8.95657 -13.3506 -46.3557
LeftArm  -4.91257 -0.184295 -32.5266
LeftForeArm  44.4765 -46.1609 -8.53407
LeftHand  -0.25398 0.0180481 5.50724
RightShoulder  5.11731 9.49854 33.4133
RightArm  8.6385 -30.8884 40.2702
RightForeArm  -5.09512 34.7414 8.08361
RightHand  -1.95799 5.85685 -20.3943
LeftUpLeg  6.13912 3.58257 -5.8465
LeftLeg  8.129 18.7815 -3.01379
LeftFoot  -12.4385 0.134077 6.23909
LeftToes  1.06246e-005 4.65856e-005 -8.18502e-006
326
root  -15.8245 40.0538 -2.13141 -1.42221 61.8467 3.16885
RightUpLeg  -16.9576 -14.1605 -2.24513
RightLeg  19.7013 -4.62376 -2.05934
RightFoot  -2.049 -0.176421 1.97878
RightToes  0.00048216 0.542163 -0.142577
Spine  13.8496 -1.62327 -3.47341
Spine1  7.91704 -3.16639 3.39926
HEad  -6.61737 4.4632 1.82033
LeftShoulder1  8.98292 -13.3936 -46.3742
LeftArm  -5.04844 -0.992104 -33.6121
LeftForeArm  45.1795 -47.9142 -9.12028
LeftHand  -0.25398 0.0180481 5.50724
RightShoulder  5.16303 9.58558 33.5003
RightArm  8.381 -29.7346 40.583
RightForeArm  -4.01153 34.9523 8.08382
RightHand  -1.80763 5.41494 -19.6086
LeftUpLeg  8.00571 3.59028 -6.12831
LeftLeg  8.66445 15.4587 -3.08126
LeftFoot  -14.0585 0.227537 6.00924
LeftToes  1.06246e-005 4.65856e-005 -8.18502e-006
327
root  -14.7703 39.8589 -1.81102 -0.78969 65.3296 4.04148
RightUpLeg  -17.6709 -15.1011 -1.26819
RightLeg  13.1137 -4.48619 0.0812283
RightFoot  0.0450294 -0.305399 3.05656
RightToes  0.00048216 0.542163 -0.142577
Spine  14.1056 -1.65226 -2.94692
Spine1  8.03423 -2.94759 2.66409
HEad  -7.48149 3.81012 2.48646
LeftShoulder1  8.99577 -13.427 -46.3481
LeftArm  -5.26895 -1.26603 -34.4678
LeftForeArm  45.5479 -48.901 -9.47114
LeftHand  -0.25398 0.0180481 5.50724
RightShoulder  5.22679 9.66151 33.7551
RightArm  8.21506 -28.3761 40.152
RightForeArm  -1.58291 34.6252 7.85377
RightHand  -1.56623 4.68886 -18.2496
LeftUpLeg  9.72217 3.57869 -6.32874
LeftLeg  9.59387 12.3006 -2.99414
LeftFoot  -15.6537 0.334023 6.34371
LeftToes  1.06246e-005 4.65856e-005 -8.18502e-006
328
root  -13.6148 39.6191 -1.47765 0.0267801 68.5539 5.03619
RightUpLeg  -17.428 -10.456 -2.95941
RightLeg  6.57035 -10.8906 3.2625
RightFoot  0.634837 -0.489533 4.72302
RightToes  0.00048216 0.542163 -0.142577
Spine  14.0531 -1.68982 -2.21678
Spine1  8.26886 -2.74503 2.07439
HEad  -8.39175 2.52727 2.7566
LeftShoulder1  9.07501 -13.5416 -46.4448
LeftArm  -5.38139 -1.12316 -34.7691
LeftForeArm  45.6585 -49.1387 -9.55651
LeftHand  -0.25398 0.0180481 5.50724
RightShoulder  5.35119 9.77203 34.3551
RightArm  8.7798 -26.4718 38.7454
RightForeArm  0.627136 33.2337 7.34629
RightHand  -1.40778 4.27456 -17.1426
LeftUpLeg  11.656 3.74655 -6.41933
LeftLeg  10.3647 9.29821 -2.82609
LeftFoot  -17.2098 0.464689 7.03481
LeftToes  1.06246e-005 4.65856e-005 -8.18502e-006
